<svg xmlns="http://www.w3.org/2000/svg" width="480" height="300" viewBox="0 0 480 300" role="img" aria-labelledby="title desc">
  <title id="title">CogniBench preview</title>
  <desc id="desc">A compact dashboard-style preview for CogniBench.</desc>
  <rect width="480" height="300" fill="#f8fbff"/>
  <rect x="26" y="28" width="428" height="244" rx="18" fill="#ffffff" stroke="#d8e6f6"/>
  <rect x="52" y="55" width="152" height="18" rx="9" fill="#1565c0"/>
  <rect x="52" y="88" width="238" height="10" rx="5" fill="#c9d9ee"/>
  <rect x="52" y="110" width="190" height="10" rx="5" fill="#dce8f6"/>
  <rect x="52" y="142" width="158" height="86" rx="14" fill="#edf6ff" stroke="#c9d9ee"/>
  <path d="M75 200c26-44 58-44 92 0" fill="none" stroke="#1565c0" stroke-width="8" stroke-linecap="round"/>
  <circle cx="75" cy="200" r="8" fill="#1565c0"/>
  <circle cx="121" cy="170" r="8" fill="#5aa2e6"/>
  <circle cx="167" cy="200" r="8" fill="#1565c0"/>
  <rect x="238" y="142" width="166" height="18" rx="9" fill="#dce8f6"/>
  <rect x="238" y="178" width="118" height="18" rx="9" fill="#dce8f6"/>
  <rect x="238" y="214" width="142" height="18" rx="9" fill="#dce8f6"/>
  <circle cx="405" cy="154" r="10" fill="#1565c0"/>
  <circle cx="375" cy="190" r="10" fill="#5aa2e6"/>
  <circle cx="399" cy="226" r="10" fill="#8ec5f5"/>
</svg>
