<svg xmlns="http://www.w3.org/2000/svg" width="480" height="300" viewBox="0 0 480 300" role="img" aria-labelledby="title desc">
  <title id="title">WR-CP preview</title>
  <desc id="desc">A conformal prediction band preview.</desc>
  <rect width="480" height="300" fill="#fffaf7"/>
  <rect x="30" y="30" width="420" height="240" rx="18" fill="#ffffff" stroke="#eadbcf"/>
  <rect x="55" y="58" width="190" height="18" rx="9" fill="#9a5b2f"/>
  <rect x="55" y="96" width="352" height="132" rx="14" fill="#fff3e8" stroke="#eadbcf"/>
  <path d="M76 190c46-78 92-84 138-18s90 60 168-46" fill="none" stroke="#d39b64" stroke-width="28" stroke-linecap="round" opacity=".35"/>
  <path d="M76 190c46-78 92-84 138-18s90 60 168-46" fill="none" stroke="#9a5b2f" stroke-width="6" stroke-linecap="round"/>
  <line x1="76" y1="210" x2="382" y2="210" stroke="#d7c4b4" stroke-width="3"/>
  <line x1="76" y1="116" x2="76" y2="210" stroke="#d7c4b4" stroke-width="3"/>
  <rect x="55" y="242" width="86" height="14" rx="7" fill="#eadbcf"/>
  <rect x="158" y="242" width="132" height="14" rx="7" fill="#eadbcf"/>
  <rect x="306" y="242" width="78" height="14" rx="7" fill="#9a5b2f"/>
</svg>
